<svg version="1.1" id="Layer_1" xmlns="http://www.w3.org/2000/svg" xmlns:xlink="http://www.w3.org/1999/xlink" x="0px" y="0px"
	 width="100%" viewBox="0 0 104 102" enable-background="new 0 0 104 102" xml:space="preserve">
<path fill="#525252" opacity="1.000000" stroke="none" 
	d="
M1.000000,2.000000 
	C2.326222,1.666667 3.651962,1.044501 4.978738,1.042282 
	C37.339985,0.988158 69.701347,1.000000 102.564789,1.268561 
	C103.015251,1.709999 102.963615,1.882876 102.598267,2.108345 
	C101.157364,3.113488 100.030167,4.066040 98.440460,5.010489 
	C67.784561,5.002386 37.591179,5.002386 7.018594,5.002386 
	C7.018594,36.102982 7.018594,66.502975 6.834742,97.160286 
	C5.784700,98.582253 4.918511,99.746895 3.777711,100.980484 
	C3.320097,101.003189 3.137094,100.956940 2.996330,100.449455 
	C3.024829,69.051567 3.043130,38.114788 2.912219,7.178639 
	C2.904902,5.449760 1.665783,3.726093 1.000000,2.000000 
z"/>
<path fill="#B6D7E3" opacity="1.000000" stroke="none" 
	d="
M2.954092,100.910706 
	C3.137094,100.956940 3.320097,101.003189 4.241962,101.020317 
	C37.565174,100.991203 70.149521,100.991203 102.911980,100.991203 
	C102.911980,67.637222 102.911980,34.846489 102.911980,2.055753 
	C102.963615,1.882876 103.015251,1.709999 103.033447,1.268561 
	C106.085014,0.387769 104.961159,2.730293 104.965736,4.000124 
	C105.019218,18.833263 105.000000,33.666664 105.000000,48.499996 
	C105.000000,66.666664 105.000000,84.833328 105.000000,103.000000 
	C71.666672,103.000000 38.333324,103.011566 5.000081,102.957748 
	C3.666209,102.955597 2.333338,102.333328 1.326452,101.499557 
	C2.086633,100.969643 2.520362,100.940170 2.954092,100.910706 
z"/>
<path fill="#000000" opacity="1.000000" stroke="none" 
	d="
M2.996330,100.449463 
	C2.520362,100.940170 2.086633,100.969643 1.326452,100.999557 
	C1.000000,68.312439 1.000000,35.624878 1.000000,2.468657 
	C1.665783,3.726093 2.904902,5.449760 2.912219,7.178639 
	C3.043130,38.114788 3.024829,69.051567 2.996330,100.449463 
z"/>
<path fill="#A5EB9A" opacity="1.000000" stroke="none" 
	d="
M7.018594,96.902969 
	C7.018594,66.502975 7.018594,36.102982 7.018594,5.002386 
	C37.591179,5.002386 67.784561,5.002386 98.483444,5.475818 
	C98.988937,36.206497 98.988937,66.463745 98.988937,96.902969 
	C67.946472,96.902969 37.482536,96.902969 7.018594,96.902969 
M46.920525,36.528831 
	C43.543999,38.132439 40.952606,40.082382 43.472519,44.723705 
	C46.641483,42.990845 49.618389,41.363010 53.115929,39.450478 
	C53.115929,50.574738 53.115929,61.131195 53.115929,71.687851 
	C55.221859,71.687851 56.936455,71.687851 58.756958,71.687851 
	C58.756958,57.142082 58.756958,42.918125 58.756958,27.347105 
	C56.551987,28.601006 54.922691,29.258812 53.628563,30.323872 
	C51.466522,32.103230 49.518696,34.142872 46.920525,36.528831 
z"/>
<path fill="#000000" opacity="1.000000" stroke="none" 
	d="
M6.834742,97.160286 
	C37.482536,96.902969 67.946472,96.902969 98.988937,96.902969 
	C98.988937,66.463745 98.988937,36.206497 98.945953,5.483920 
	C100.030167,4.066040 101.157364,3.113488 102.598267,2.108345 
	C102.911980,34.846489 102.911980,67.637222 102.911980,100.991203 
	C70.149521,100.991203 37.565174,100.991203 4.516574,100.951370 
	C4.918511,99.746895 5.784700,98.582253 6.834742,97.160286 
z"/>
<path fill="#040604" opacity="1.000000" stroke="none" 
	d="
M47.200607,36.300888 
	C49.518696,34.142872 51.466522,32.103230 53.628563,30.323872 
	C54.922691,29.258812 56.551987,28.601006 58.756958,27.347105 
	C58.756958,42.918125 58.756958,57.142082 58.756958,71.687851 
	C56.936455,71.687851 55.221859,71.687851 53.115929,71.687851 
	C53.115929,61.131195 53.115929,50.574738 53.115929,39.450478 
	C49.618389,41.363010 46.641483,42.990845 43.472519,44.723705 
	C40.952606,40.082382 43.543999,38.132439 47.200607,36.300888 
z"/>
</svg>